<?xml version="1.0" encoding="UTF-8" standalone="no"?>
<svg
   xmlns:dc="http://purl.org/dc/elements/1.1/"
   xmlns:cc="http://creativecommons.org/ns#"
   xmlns:rdf="http://www.w3.org/1999/02/22-rdf-syntax-ns#"
   xmlns:svg="http://www.w3.org/2000/svg"
   xmlns="http://www.w3.org/2000/svg"
   xmlns:sodipodi="http://sodipodi.sourceforge.net/DTD/sodipodi-0.dtd"
   xmlns:inkscape="http://www.inkscape.org/namespaces/inkscape"
   width="76"
   height="76"
   viewBox="0 0 76 76"
   fill="none"
   id="svg2"
   version="1.1"
   inkscape:version="0.91 r13725"
   sodipodi:docname="github.svg">
  <metadata
     id="metadata12">
    <rdf:RDF>
      <cc:Work
         rdf:about="">
        <dc:format>image/svg+xml</dc:format>
        <dc:type
           rdf:resource="http://purl.org/dc/dcmitype/StillImage" />
      </cc:Work>
    </rdf:RDF>
  </metadata>
  <defs
     id="defs10" />
  <sodipodi:namedview
     pagecolor="#ffffff"
     bordercolor="#666666"
     borderopacity="1"
     objecttolerance="10"
     gridtolerance="10"
     guidetolerance="10"
     inkscape:pageopacity="0"
     inkscape:pageshadow="2"
     inkscape:window-width="1600"
     inkscape:window-height="877"
     id="namedview8"
     showgrid="false"
     inkscape:zoom="6.2105263"
     inkscape:cx="69.49018"
     inkscape:cy="29.073328"
     inkscape:window-x="-8"
     inkscape:window-y="-8"
     inkscape:window-maximized="1"
     inkscape:current-layer="svg2" />
  <path
     d="m 48.871094,75.943355 c -32.580729,0.03776 -16.290365,0.01888 0,0 z m 0,0 c -1.04364,-0.210062 -1.445313,-1.099789 -1.445313,-1.890625 0,-1.2839 0.04297,-5.479206 0.04297,-10.691406 0,-3.6349 -1.215125,-6.005844 -2.578125,-7.214844 8.4618,-0.9645 17.351563,-4.258956 17.351563,-19.222656 0,-4.2535 -1.473657,-7.728631 -3.910157,-10.457031 0.3946,-0.9819 1.695353,-4.944147 -0.373047,-10.310547 0,0 -3.186453,-1.046459 -10.439453,3.994141 C 44.482631,19.287191 41.2294,18.854744 38,18.839844 c -3.2294,0.0149 -6.480519,0.447347 -9.511719,1.310547 -7.2618,-5.0406 -10.453125,-3.994141 -10.453125,-3.994141 -2.0634,5.3664 -0.761787,9.328647 -0.367187,10.310547 -2.4309,2.7284 -3.916016,6.203531 -3.916016,10.457031 0,14.9283 8.874053,18.268806 17.314453,19.253906 -1.0868,0.9723 -2.072962,2.693538 -2.414062,5.210938 -2.1684,0.9955 -7.667441,2.715866 -11.056641,-3.240234 0,-10e-7 -2.010372,-3.739472 -5.826172,-4.013672 0,0 -3.7075654,-0.05081 -0.259765,2.367187 0,0 2.49015,1.197972 4.21875,5.701172 0,0 2.231034,6.954456 12.802734,4.597656 0.0164,3.2555 0.05273,6.322953 0.05273,7.251953 0,0.79647 -0.426602,1.690678 -1.496093,1.890625 z m -21.783203,0 c -18.058594,0.03776 -9.029297,0.01888 0,0 z"
     id="path4"
     style="fill:#f4f4f6;fill-opacity:1"
     inkscape:connector-curvature="0"
     sodipodi:nodetypes="cccsscscccccccscccccccscccc" />
  <path
     d="M 38.0003,-0.00515747 C 17.0161,-0.00515747 0,17.4367 0,38.9539 c 0,17.2135 10.8882,31.8172 25.9869,36.9688 1.8992,0.3607 2.5964,-0.8451 2.5964,-1.8742 0,-0.929 -0.0352,-3.998 -0.0516,-7.2535 C 17.96,69.1518 15.7292,62.1983 15.7292,62.1983 14.0006,57.6951 11.51,56.4977 11.51,56.4977 c -3.4478,-2.4181 0.2599,-2.3684 0.2599,-2.3684 3.8158,0.2742 5.8251,4.0148 5.8251,4.0148 3.3892,5.9561 8.8897,4.2342 11.0581,3.2387 0.3411,-2.5174 1.3259,-4.2374 2.4127,-5.2096 -8.4404,-0.9852 -17.3131,-4.3258 -17.3131,-19.2541 0,-4.2535 1.4844,-7.729 3.9153,-10.4573 -0.3946,-0.982 -1.6953,-4.9439 0.3681,-10.3103 0,0 3.191,-1.0471 10.4528,3.9935 3.0312,-0.8632 6.282,-1.2961 9.5114,-1.3109 3.2294,0.0148 6.4827,0.4477 9.5196,1.3109 7.253,-5.0406 10.4396,-3.9935 10.4396,-3.9935 2.0684,5.3664 0.7671,9.3283 0.3725,10.3103 2.4365,2.7283 3.9109,6.2038 3.9109,10.4573 0,14.9638 -8.8897,18.2586 -17.3515,19.2231 1.363,1.209 2.5775,3.58 2.5775,7.2148 0,5.2122 -0.044,9.4077 -0.044,10.6915 0,1.0368 0.684,2.2516 2.6102,1.8691 C 65.1256,70.7602 76,56.1616 76,38.9539 76,17.4367 58.9864,-0.00515747 38.0003,-0.00515747 Z"
     id="path6" />
</svg>
