<?xml version="1.0" encoding="UTF-8" standalone="no"?>
<svg
   xmlns:dc="http://purl.org/dc/elements/1.1/"
   xmlns:cc="http://creativecommons.org/ns#"
   xmlns:rdf="http://www.w3.org/1999/02/22-rdf-syntax-ns#"
   xmlns:svg="http://www.w3.org/2000/svg"
   xmlns="http://www.w3.org/2000/svg"
   xmlns:sodipodi="http://sodipodi.sourceforge.net/DTD/sodipodi-0.dtd"
   xmlns:inkscape="http://www.inkscape.org/namespaces/inkscape"
   width="76"
   height="76"
   viewBox="0 0 76 76"
   fill="none"
   id="svg2"
   version="1.1"
   inkscape:version="0.91 r13725"
   sodipodi:docname="linkedin.svg">
  <metadata
     id="metadata10">
    <rdf:RDF>
      <cc:Work
         rdf:about="">
        <dc:format>image/svg+xml</dc:format>
        <dc:type
           rdf:resource="http://purl.org/dc/dcmitype/StillImage" />
      </cc:Work>
    </rdf:RDF>
  </metadata>
  <defs
     id="defs8" />
  <sodipodi:namedview
     pagecolor="#ffffff"
     bordercolor="#666666"
     borderopacity="1"
     objecttolerance="10"
     gridtolerance="10"
     guidetolerance="10"
     inkscape:pageopacity="0"
     inkscape:pageshadow="2"
     inkscape:window-width="1600"
     inkscape:window-height="877"
     id="namedview6"
     showgrid="false"
     inkscape:zoom="6.2105263"
     inkscape:cx="66.246378"
     inkscape:cy="41.078073"
     inkscape:window-x="-8"
     inkscape:window-y="-8"
     inkscape:window-maximized="1"
     inkscape:current-layer="svg2" />
  <path
     style="opacity:1;fill:#f4f4f6;fill-opacity:1;fill-rule:nonzero;stroke:none;stroke-width:2;stroke-linecap:butt;stroke-linejoin:miter;stroke-miterlimit:4;stroke-dasharray:none;stroke-opacity:1"
     d="m 22.601,19.000197 c -2.9459,0 -4.873047,1.93175 -4.873047,4.46875 0,2.4844 1.868666,4.472656 4.759766,4.472656 l 0.05664,0 c 3.0028,0 4.871093,-1.988256 4.871093,-4.472656 -0.0558,-2.537 -1.868353,-4.46875 -4.814452,-4.46875 z m 25.390625,11.865235 c -4.5721,0 -6.620672,2.511637 -7.763672,4.273437 l 0,-3.664062 -8.611328,0 c 0.1136,2.4279 0,25.873046 0,25.873046 l 8.611328,0 0,-14.449218 c 0,-0.7732 0.0555,-1.54601 0.283203,-2.09961 0.6224,-1.5449 2.040722,-3.144531 4.419922,-3.144531 3.1174,0 4.363282,2.372509 4.363282,5.849609 l 0,13.84375 8.611328,0 0,-14.835937 c 0,-7.9475 -4.247163,-11.646484 -9.914063,-11.646484 z m -29.753906,0.607421 0,25.875 8.611328,0 0,-25.875 z"
     id="rect4138"
     inkscape:connector-curvature="0"
     sodipodi:nodetypes="sssscsscccccscssccssccccc" />
</svg>
