<?xml version="1.0" encoding="UTF-8" standalone="no"?>
<!DOCTYPE svg PUBLIC "-//W3C//DTD SVG 1.1//EN" "http://www.w3.org/Graphics/SVG/1.1/DTD/svg11.dtd">
<svg width="100%" height="100%" viewBox="0 0 76 76" version="1.1" xmlns="http://www.w3.org/2000/svg" xmlns:xlink="http://www.w3.org/1999/xlink" xml:space="preserve" xmlns:serif="http://www.serif.com/" style="fill-rule:evenodd;clip-rule:evenodd;stroke-linejoin:round;stroke-miterlimit:2;">
    <g id="rect4138" transform="matrix(1.89159,0,0,1.89159,-33.5341,-34.2098)">
        <path d="M22.601,19C19.655,19 17.728,20.932 17.728,23.469C17.728,25.953 19.597,27.942 22.488,27.942L22.544,27.942C25.547,27.942 27.415,25.953 27.415,23.469C27.36,20.932 25.547,19 22.601,19ZM47.992,30.865C43.42,30.865 41.371,33.377 40.228,35.139L40.228,31.475L31.617,31.475C31.73,33.903 31.617,57.348 31.617,57.348L40.228,57.348L40.228,42.899C40.228,42.125 40.283,41.353 40.511,40.799C41.134,39.254 42.552,37.654 44.931,37.654C48.048,37.654 49.294,40.027 49.294,43.504L49.294,57.348L57.906,57.348L57.906,42.512C57.906,34.564 53.659,30.865 47.992,30.865ZM18.238,31.473L18.238,57.348L26.849,57.348L26.849,31.473L18.238,31.473Z" style="fill-rule:nonzero;"/>
    </g>
</svg>
