<?xml version="1.0" encoding="UTF-8" standalone="no"?>
<!DOCTYPE svg PUBLIC "-//W3C//DTD SVG 1.1//EN" "http://www.w3.org/Graphics/SVG/1.1/DTD/svg11.dtd">
<svg width="100%" height="100%" viewBox="0 0 76 76" version="1.1" xmlns="http://www.w3.org/2000/svg" xmlns:xlink="http://www.w3.org/1999/xlink" xml:space="preserve" xmlns:serif="http://www.serif.com/" style="fill-rule:evenodd;clip-rule:evenodd;stroke-linejoin:round;stroke-miterlimit:2;">
    <g id="rect4150" transform="matrix(2.08901,0,0,2.08901,-42.4903,-41.3825)">
        <path d="M23.311,22.801C21.629,22.801 20.268,24.162 20.268,25.84L20.268,27.193C20.268,27.193 35.561,35.867 38.529,35.867C41.641,35.867 56.77,27.359 56.77,27.359L56.793,25.84C56.793,24.162 55.433,22.801 53.75,22.801L23.311,22.801ZM20.291,31.92L20.268,50.16C20.268,51.838 21.631,53.199 23.311,53.199L53.75,53.199C55.433,53.199 56.793,51.838 56.793,50.16L56.77,31.92C56.77,31.92 41.784,40.047 38.529,40.047C35.561,40.047 20.291,31.92 20.291,31.92Z" style="fill-rule:nonzero;"/>
    </g>
</svg>
