<?xml version="1.0" encoding="UTF-8" standalone="no"?>
<svg
   xmlns:dc="http://purl.org/dc/elements/1.1/"
   xmlns:cc="http://creativecommons.org/ns#"
   xmlns:rdf="http://www.w3.org/1999/02/22-rdf-syntax-ns#"
   xmlns:svg="http://www.w3.org/2000/svg"
   xmlns="http://www.w3.org/2000/svg"
   xmlns:sodipodi="http://sodipodi.sourceforge.net/DTD/sodipodi-0.dtd"
   xmlns:inkscape="http://www.inkscape.org/namespaces/inkscape"
   width="76"
   height="76"
   viewBox="0 0 76 76"
   fill="none"
   id="svg2"
   version="1.1"
   inkscape:version="0.91 r13725"
   sodipodi:docname="mail.svg">
  <metadata
     id="metadata10">
    <rdf:RDF>
      <cc:Work
         rdf:about="">
        <dc:format>image/svg+xml</dc:format>
        <dc:type
           rdf:resource="http://purl.org/dc/dcmitype/StillImage" />
      </cc:Work>
    </rdf:RDF>
  </metadata>
  <defs
     id="defs8" />
  <sodipodi:namedview
     pagecolor="#ffffff"
     bordercolor="#666666"
     borderopacity="1"
     objecttolerance="10"
     gridtolerance="10"
     guidetolerance="10"
     inkscape:pageopacity="0"
     inkscape:pageshadow="2"
     inkscape:window-width="1600"
     inkscape:window-height="877"
     id="namedview6"
     showgrid="false"
     inkscape:zoom="4.3915053"
     inkscape:cx="36.853296"
     inkscape:cy="37.412271"
     inkscape:window-x="-8"
     inkscape:window-y="-8"
     inkscape:window-maximized="1"
     inkscape:current-layer="svg2" />
  <path
     style="opacity:1;fill:#f4f4f6;fill-opacity:1;fill-rule:nonzero;stroke:none;stroke-width:2;stroke-linecap:butt;stroke-linejoin:miter;stroke-miterlimit:4;stroke-dasharray:none;stroke-opacity:1"
     d="M 23.310547 22.800781 C 21.629447 22.800781 20.267578 24.161744 20.267578 25.839844 L 20.267578 27.193359 C 20.267578 27.193359 35.560797 35.867188 38.529297 35.867188 C 41.640797 35.867188 56.769531 27.359375 56.769531 27.359375 L 56.792969 25.839844 C 56.792969 24.161744 55.4326 22.800781 53.75 22.800781 L 23.310547 22.800781 z M 20.291016 31.919922 L 20.267578 50.160156 C 20.267578 51.838256 21.630947 53.199219 23.310547 53.199219 L 53.75 53.199219 C 55.4326 53.199219 56.792969 51.838256 56.792969 50.160156 L 56.769531 31.919922 C 56.769531 31.919922 41.783697 40.046875 38.529297 40.046875 C 35.560797 40.046875 20.291016 31.919922 20.291016 31.919922 z "
     id="rect4150" />
</svg>
