<?xml version="1.0" encoding="UTF-8" standalone="no"?><!DOCTYPE svg PUBLIC "-//W3C//DTD SVG 1.1//EN" "http://www.w3.org/Graphics/SVG/1.1/DTD/svg11.dtd"><svg width="100%" height="100%" viewBox="0 0 400 400" version="1.1" xmlns="http://www.w3.org/2000/svg" xmlns:xlink="http://www.w3.org/1999/xlink" xml:space="preserve" xmlns:serif="http://www.serif.com/" style="fill-rule:evenodd;clip-rule:evenodd;stroke-linejoin:round;stroke-miterlimit:2;"><path d="M199.874,143.407c-17.108,0.008 -30.996,13.896 -31.264,31.264c-0.003,14.414 11.517,29.914 25.93,29.914l0,121.156l-5.261,0c-17.438,-48.902 -38.501,-96.767 -65.061,-143.062c15.816,-24.841 21.155,-49.216 21.155,-78.278l47.011,0l7.616,0l7.616,0l47.011,0c0,29.062 5.339,53.437 21.155,78.278c-26.56,46.295 -47.623,94.16 -65.061,143.062l-5.261,0l0,-121.156c14.413,0 25.933,-15.5 25.93,-29.914c-0.268,-17.368 -14.156,-31.256 -31.264,-31.264l-0.126,0.002l-0.126,-0.002Z" style="fill:#f4f4f6;"/><path d="M260.957,79.104c0,-2.674 -2.171,-4.845 -4.845,-4.845l-112.224,0c-2.674,0 -4.845,2.171 -4.845,4.845l0,9.688c0,2.674 2.171,4.844 4.845,4.844l112.224,0c2.674,0 4.845,-2.17 4.845,-4.844l0,-9.688Z" style="fill:#f4f4f6;"/></svg>