<?xml version="1.0" encoding="UTF-8" standalone="no"?>
<!DOCTYPE svg PUBLIC "-//W3C//DTD SVG 1.1//EN" "http://www.w3.org/Graphics/SVG/1.1/DTD/svg11.dtd">
<svg width="100%" height="100%" viewBox="0 0 400 400" version="1.1" xmlns="http://www.w3.org/2000/svg" xmlns:xlink="http://www.w3.org/1999/xlink" xml:space="preserve" xmlns:serif="http://www.serif.com/" style="fill-rule:evenodd;clip-rule:evenodd;stroke-linejoin:round;stroke-miterlimit:2;">
    <g transform="matrix(1.59057,0,0,1.59057,-118.114,-118.114)">
        <path d="M199.874,143.407C182.766,143.415 168.878,157.303 168.61,174.671C168.607,189.085 180.127,204.585 194.54,204.585L194.54,325.741L189.279,325.741C171.841,276.839 150.778,228.974 124.218,182.679C140.034,157.838 145.373,133.463 145.373,104.401L254.627,104.401C254.627,133.463 259.966,157.838 275.782,182.679C249.222,228.974 228.159,276.839 210.721,325.741L205.46,325.741L205.46,204.585C219.873,204.585 231.393,189.085 231.39,174.671C231.122,157.303 217.234,143.415 200.126,143.407L200,143.409L199.874,143.407Z"/>
    </g>
    <g transform="matrix(1.59057,0,0,1.59057,-118.114,-118.114)">
        <path d="M260.957,79.104C260.957,76.43 258.786,74.259 256.112,74.259L143.888,74.259C141.214,74.259 139.043,76.43 139.043,79.104L139.043,88.792C139.043,91.466 141.214,93.636 143.888,93.636L256.112,93.636C258.786,93.636 260.957,91.466 260.957,88.792L260.957,79.104Z"/>
    </g>
</svg>
