<?xml version="1.0" encoding="UTF-8" standalone="no"?>
<!DOCTYPE svg PUBLIC "-//W3C//DTD SVG 1.1//EN" "http://www.w3.org/Graphics/SVG/1.1/DTD/svg11.dtd">
<svg width="100%" height="100%" viewBox="0 0 76 76" version="1.1" xmlns="http://www.w3.org/2000/svg" xmlns:xlink="http://www.w3.org/1999/xlink" xml:space="preserve" xmlns:serif="http://www.serif.com/" style="fill-rule:evenodd;clip-rule:evenodd;stroke-linejoin:round;stroke-miterlimit:2;">
    <g id="path4" transform="matrix(1.53209,0,0,1.53209,-20.2199,-20.2194)">
        <path d="M20.268,13.197C19.163,13.197 18.268,14.094 18.268,15.199L18.268,60.801C18.268,61.906 19.163,62.803 20.268,62.803L55.734,62.803C56.839,62.803 57.734,61.906 57.734,60.801L57.734,24.588C57.734,24.076 57.539,23.585 57.188,23.213L48.32,13.824C47.943,13.424 47.417,13.197 46.867,13.197L20.268,13.197ZM22.268,17.201L46.006,17.201L53.734,25.385L53.734,58.799L22.268,58.799L22.268,17.201ZM38,20.268C36.601,20.268 35.467,21.685 35.467,23.434C35.467,25.182 36.601,26.6 38,26.6C39.399,26.6 40.533,25.182 40.533,23.434C40.533,21.685 39.399,20.268 38,20.268ZM35.742,26.6C34.171,26.682 32.934,27.594 32.934,28.707L32.934,32.934L43.066,32.934L43.066,28.707C43.066,27.594 41.829,26.682 40.258,26.6C39.701,27.028 38.896,27.299 38,27.299C37.104,27.299 36.299,27.028 35.742,26.6ZM26.834,37.531C26.006,37.531 25.334,38.202 25.334,39.031C25.334,39.861 26.006,40.533 26.834,40.533L49.166,40.533C49.994,40.533 50.666,39.861 50.666,39.031C50.666,38.202 49.994,37.531 49.166,37.531L26.834,37.531ZM26.834,45.131C26.006,45.131 25.334,45.802 25.334,46.631C25.334,47.46 26.006,48.133 26.834,48.133L49.166,48.133C49.994,48.133 50.666,47.46 50.666,46.631C50.666,45.802 49.994,45.131 49.166,45.131L26.834,45.131ZM26.834,52.73C26.006,52.73 25.334,53.403 25.334,54.232C25.334,55.062 26.006,55.732 26.834,55.732L49.166,55.732C49.994,55.732 50.666,55.062 50.666,54.232C50.666,53.403 49.994,52.73 49.166,52.73L26.834,52.73Z"/>
    </g>
</svg>
