<?xml version="1.0" encoding="UTF-8" standalone="no"?>
<svg
   xmlns:dc="http://purl.org/dc/elements/1.1/"
   xmlns:cc="http://creativecommons.org/ns#"
   xmlns:rdf="http://www.w3.org/1999/02/22-rdf-syntax-ns#"
   xmlns:svg="http://www.w3.org/2000/svg"
   xmlns="http://www.w3.org/2000/svg"
   xmlns:sodipodi="http://sodipodi.sourceforge.net/DTD/sodipodi-0.dtd"
   xmlns:inkscape="http://www.inkscape.org/namespaces/inkscape"
   width="76"
   height="76"
   viewBox="0 0 76 76"
   fill="none"
   id="svg2"
   version="1.1"
   inkscape:version="0.91 r13725"
   sodipodi:docname="resume.svg">
  <metadata
     id="metadata10">
    <rdf:RDF>
      <cc:Work
         rdf:about="">
        <dc:format>image/svg+xml</dc:format>
        <dc:type
           rdf:resource="http://purl.org/dc/dcmitype/StillImage" />
      </cc:Work>
    </rdf:RDF>
  </metadata>
  <defs
     id="defs8" />
  <sodipodi:namedview
     pagecolor="#ffffff"
     bordercolor="#666666"
     borderopacity="1"
     objecttolerance="10"
     gridtolerance="10"
     guidetolerance="10"
     inkscape:pageopacity="0"
     inkscape:pageshadow="2"
     inkscape:window-width="1600"
     inkscape:window-height="877"
     id="namedview6"
     showgrid="false"
     inkscape:zoom="6.2105263"
     inkscape:cx="72.708835"
     inkscape:cy="33.813598"
     inkscape:window-x="-8"
     inkscape:window-y="-8"
     inkscape:window-maximized="1"
     inkscape:current-layer="svg2"
     inkscape:snap-smooth-nodes="true"
     inkscape:snap-midpoints="false"
     inkscape:snap-intersection-paths="false"
     inkscape:snap-bbox="true"
     inkscape:bbox-paths="true"
     inkscape:bbox-nodes="true" />
  <path
     style="clip-rule:evenodd;fill:#f4f4f6;fill-rule:evenodd;fill-opacity:1"
     d="m 20.267578,13.197266 c -1.1046,0 -2,0.896276 -2,2.001953 l 0,45.601562 c 0,1.105676 0.8954,2.001953 2,2.001953 l 35.466797,0 c 1.1046,0 2,-0.896277 2,-2.001953 l 0,-36.21289 c 0,-0.511498 -0.195875,-1.003338 -0.546875,-1.375 l -8.867188,-9.388672 c -0.3778,-0.39999 -0.903224,-0.626953 -1.453124,-0.626953 z m 2,4.003906 23.738281,0 7.728516,8.183594 0,33.414062 -31.466797,0 z M 38,20.267578 c -1.3992,0 -2.533203,1.417113 -2.533203,3.166016 0,1.748903 1.134003,3.166015 2.533203,3.166015 1.399201,0 2.533203,-1.417112 2.533203,-3.166015 0,-1.748903 -1.134002,-3.166016 -2.533203,-3.166016 z m -2.257812,6.332031 c -1.570901,0.08218 -2.808594,0.994538 -2.808594,2.107422 l 0,4.226563 10.132812,0 0,-4.226563 c 0,-1.112884 -1.237793,-2.025242 -2.808594,-2.107422 -0.556399,0.428818 -1.361711,0.699219 -2.257812,0.699219 -0.8961,0 -1.701413,-0.270401 -2.257812,-0.699219 z M 26.833984,37.53125 c -0.8284,0 -1.5,0.670793 -1.5,1.5 0,0.829308 0.6716,1.501953 1.5,1.501953 l 22.332032,0 c 0.8284,0 1.5,-0.672645 1.5,-1.501953 0,-0.829207 -0.6716,-1.5 -1.5,-1.5 z m 0,7.599609 c -0.8284,0 -1.5,0.670693 -1.5,1.5 0,0.829207 0.6716,1.501953 1.5,1.501953 l 22.332032,0 c 0.8284,0 1.5,-0.672746 1.5,-1.501953 0,-0.829307 -0.6716,-1.5 -1.5,-1.5 z m 0,7.59961 c -0.8284,0 -1.5,0.672745 -1.5,1.501953 0,0.829207 0.6716,1.5 1.5,1.5 l 22.332032,0 c 0.8284,0 1.5,-0.670793 1.5,-1.5 0,-0.829208 -0.6716,-1.501953 -1.5,-1.501953 z"
     id="path4"
     inkscape:connector-curvature="0"
     sodipodi:nodetypes="sssssssccssccccccssssscsccscscsssssssssssssssssssss" />
  <g
     inkscape:groupmode="layer"
     id="layer1"
     inkscape:label="Layer 1" />
</svg>
